<?xml version="1.0" encoding="utf-8"?><svg viewBox="0 0 120 120" xmlns="http://www.w3.org/2000/svg" xmlns:xlink="http://www.w3.org/1999/xlink"><style>:root>svg{display:none}:root>svg:target{display:block}</style><svg viewBox="0 0 19 19" class="ablog-post-post-list-description-fill ablog-link-hover-fill" id="comment" xmlns="http://www.w3.org/2000/svg"><path d="M9.5 13H15a1 1 0 0 0 1-1V5a1 1 0 0 0-1-1H4a1 1 0 0 0-1 1v7a1 1 0 0 0 1 1h3v2.5L9.5 13Zm5.508.973H10l-2.578 2.572C6.637 17.328 6 17.067 6 15.97v-1.997H3.992A2 2 0 0 1 2 11.98V4.994C2 3.893 2.893 3 3.992 3h11.016A2 2 0 0 1 17 4.994v6.985a1.994 1.994 0 0 1-1.992 1.994Z"/></svg><svg viewBox="0 0 19 19" id="like" xmlns="http://www.w3.org/2000/svg"><path d="M9.45 15.53a.223.223 0 0 0-.033.025l.033-.026Zm0 0 .044-.036c-.34.22.738-.463 1.236-.797a33.37 33.37 0 0 0 2.418-1.777c1.235-1.003 2.21-1.975 2.823-2.872.106-.155.2-.306.28-.449.77-1.421.958-2.815.499-3.94-.29-.848-1.027-1.549-2.01-1.95-1.602-.596-3.692.132-4.84 1.655l-.392.52-.401-.512C7.95 3.893 6.005 3.146 4.318 3.72c-.953.286-1.664 1-2.078 2.054-.45 1.098-.258 2.49.5 3.808.208.35.492.727.847 1.127.59.666 1.36 1.377 2.27 2.118 1.255 1.024 3.802 2.802 3.726 2.728-.044-.042-.097-.055-.083-.055.01 0-.017.007-.05.03Z"/></svg><svg id="profile" style="enable-background:new 0 0 120 120" version="1.1" viewBox="0 0 120 120" xml:space="preserve" xmlns="http://www.w3.org/2000/svg"><style>.cst1{fill:#566eff}</style><circle cx="60" cy="60" r="47.6" style="fill:#b6d9ff"/><circle class="cst1" cx="59.9" cy="46.2" r="13.3"/><path class="cst1" d="M29.5 82v1.1c0 2.2 1.8 4 4 4h52.9c2.2 0 4-1.8 4-4V82c-5.5-11.2-17.1-19.1-30.5-19.1-13.4 0-25 7.7-30.4 19.1z"/></svg><svg viewBox="0 0 32 32" id="share" xmlns="http://www.w3.org/2000/svg"><path d="M2 29a1.12 1.12 0 0 1-.31 0A1 1 0 0 1 1 28v-1A19 19 0 0 1 17 8.24V4a1 1 0 0 1 1.6-.8l12 9a1 1 0 0 1 0 1.6l-12 9A1 1 0 0 1 17 22v-3.75a18.66 18.66 0 0 0-12.07 7.42l-2.12 2.92A1 1 0 0 1 2 29ZM19 6v3.12a1 1 0 0 1-.89 1 17 17 0 0 0-15 14.6l.16-.21a20.68 20.68 0 0 1 14.63-8.4 1 1 0 0 1 .77.26 1 1 0 0 1 .33.74V20l9.33-7Z" style="fill:#101820" data-name="Layer 51"/></svg><svg fill="none" viewBox="0 0 30 30" id="tg" xmlns="http://www.w3.org/2000/svg"><path d="M15 30c8.284 0 15-6.716 15-15 0-8.284-6.716-15-15-15C6.716 0 0 6.716 0 15c0 8.284 6.716 15 15 15Z" fill="#039BE5"/><path d="m6.864 14.675 14.462-5.576c.671-.243 1.258.164 1.04 1.178h.002l-2.463 11.6c-.183.823-.671 1.023-1.355.636l-3.75-2.764-1.809 1.742c-.2.2-.368.369-.756.369l.266-3.816 6.95-6.279c.303-.266-.067-.416-.466-.151l-8.589 5.407-3.702-1.155c-.804-.255-.821-.803.17-1.191Z" fill="#fff"/></svg><svg viewBox="0 0 19 19" aria-label="3 просмотра" class="fblog-post-post-list-description-fill" id="view" xmlns="http://www.w3.org/2000/svg"><path d="M18.651 10.46c-1.259 1.509-4.674 5.019-9.188 5.04h-.039c-3.162 0-6.216-1.706-9.079-5.074a1.461 1.461 0 0 1 0-1.886C1.605 7.03 5.02 3.52 9.533 3.5h.04c3.162 0 6.216 1.706 9.08 5.074.46.545.459 1.342-.002 1.886Zm-.784-1.237C15.208 6.095 12.42 4.51 9.574 4.51H9.54c-4.079.019-7.234 3.273-8.4 4.67a.463.463 0 0 0-.008.6c2.66 3.128 5.45 4.712 8.293 4.712h.035c4.08-.018 7.233-3.272 8.4-4.67a.462.462 0 0 0 .007-.6ZM9.5 13.393a3.898 3.898 0 0 1-3.847-3.93 3.898 3.898 0 0 1 3.917-3.86 3.898 3.898 0 0 1 3.882 3.895A3.928 3.928 0 0 1 9.5 13.393Zm0-6.775a2.884 2.884 0 0 0-2.845 2.909 2.884 2.884 0 0 0 2.899 2.856A2.884 2.884 0 0 0 12.425 9.5 2.907 2.907 0 0 0 9.5 6.618Z"/></svg><svg fill="none" viewBox="0 0 24 24" id="vk" xmlns="http://www.w3.org/2000/svg"><rect width="24" height="24" rx="5.76" fill="#07F"/><path d="M12.82 17.5c-5.42 0-8.7-3.76-8.83-10h2.74c.09 4.59 2.17 6.53 3.77 6.93V7.5h2.63v3.96c1.54-.17 3.16-1.97 3.7-3.96h2.59A7.62 7.62 0 0 1 16 12.49a7.9 7.9 0 0 1 4.01 5.01h-2.84c-.6-1.9-2.07-3.37-4.05-3.57v3.57h-.31Z" fill="#fff"/></svg></svg>